mtllib handmade_6.mtl
o model
v 0.179621 -0.248977 0.0774886
v 0.179621 0.248977 0.0774886
v -0.179621 -0.248977 0.0774886
v -0.179621 0.248977 0.0774886
v 0.179621 -0.248977 -0.0774886
v 0.179621 0.248977 -0.0774886
v -0.179621 -0.248977 -0.0774886
v -0.179621 0.248977 -0.0774886
v -0.179621 -0.248977 -0.112358
v -0.179621 0.248977 -0.112358
v 0.179621 -0.248977 -0.112358
v 0.179621 0.248977 -0.112358
v 0.179621 -0.248977 0.116233
v 0.179621 0.248977 0.116233
v -0.179621 -0.248977 0.116233
v -0.179621 0.248977 0.116233
v -0.215545 -0.248977 0.0774886
v -0.215545 0.248977 0.0774886
v -0.215545 -0.248977 -0.0774886
v -0.215545 0.248977 -0.0774886
v -0.215545 0.248977 -0.112358
v -0.215545 -0.248977 -0.112358
v -0.215545 -0.248977 0.116233
v -0.215545 0.248977 0.116233
v 0.233507 0.248977 -0.0774886
v 0.233507 -0.248977 -0.0774886
v 0.233507 -0.248977 -0.112358
v 0.233507 0.248977 -0.112358
v 0.233507 -0.248977 0.0774886
v 0.233507 0.248977 0.0774886
v 0.233507 0.248977 0.116233
v 0.233507 -0.248977 0.116233
v -0.179621 -0.286324 0.0774886
v 0.179621 -0.286324 0.0774886
v 0.179621 -0.286324 0.116233
v -0.179621 -0.286324 0.116233
v -0.179621 -0.286324 -0.0774886
v -0.215545 -0.286324 0.0774886
v -0.215545 -0.286324 -0.0774886
v -0.179621 -0.286324 -0.112358
v -0.215545 -0.286324 -0.112358
v -0.215545 -0.286324 0.116233
v 0.179621 -0.286324 -0.0774886
v 0.179621 -0.286324 -0.112358
v 0.233507 -0.286324 -0.112358
v 0.233507 -0.286324 -0.0774886
v 0.233507 -0.286324 0.0774886
v 0.233507 -0.286324 0.116233
v -0.179621 0.286324 -0.0774886
v 0.179621 0.286324 -0.0774886
v 0.179621 0.286324 -0.112358
v -0.179621 0.286324 -0.112358
v 0.179621 0.286324 0.0774886
v -0.179621 0.286324 0.0774886
v -0.179621 0.286324 0.116233
v 0.179621 0.286324 0.116233
v -0.215545 0.286324 -0.0774886
v -0.215545 0.286324 0.0774886
v -0.215545 0.286324 -0.112358
v -0.215545 0.286324 0.116233
v 0.233507 0.286324 -0.0774886
v 0.233507 0.286324 -0.112358
v 0.233507 0.286324 0.116233
v 0.233507 0.286324 0.0774886
usemtl mat_0
f 42 48 63 60
usemtl mat_1
f 59 62 45 41
usemtl mat_2
f 2 6 8 4
usemtl mat_3
f 1 3 7 5
usemtl mat_4
f 1 5 6 2
usemtl mat_5
f 41 42 60 59
usemtl mat_6
f 37 33 47 48 42 41 45 46
usemtl mat_7
f 49 61 62 59 60 63 64 54
usemtl mat_8
f 46 45 62 61
usemtl mat_9
f 64 63 48 47
usemtl mat_10
f 6 5 7 37 46 61 49 8
usemtl mat_11
f 1 2 4 54 64 47 33 3
usemtl mat_12
f 7 3 33 37
usemtl mat_13
f 4 8 49 54
