mtllib handmade_4.mtl
o model
v 0.0476277 0.160925 0.0125829
v 0.0385994 0.539075 0.0125829
v -0.0476277 0.160925 0.0125829
v -0.0385994 0.539075 0.0125829
v 0.0476277 0.160925 -0.0125829
v 0.0385994 0.539075 -0.0125829
v -0.0476277 0.160925 -0.0125829
v -0.0385994 0.539075 -0.0125829
v 0.00747714 0.794326 0.0125829
v 0.00747714 0.794326 -0.0125829
v -0.00747714 0.794326 0.0125829
v -0.00747714 0.794326 -0.0125829
v 0.0600303 -0.0754181 0.0125829
v -0.0600303 -0.0754181 0.0125829
v 0.0600303 -0.0754181 -0.0125829
v -0.0600303 -0.0754181 -0.0125829
v 0.0600303 -0.113233 -0.0125829
v -0.0600303 -0.113233 0.0125829
v -0.0600303 -0.113233 -0.0125829
v 0.0600303 -0.113233 0.0125829
v 0.0156224 -0.13214 -0.0125829
v -0.0156224 -0.13214 0.0125829
v -0.0156224 -0.13214 -0.0125829
v 0.0156224 -0.13214 0.0125829
v 0.0156224 -0.500836 -0.0125829
v -0.0156224 -0.500836 0.0125829
v -0.0156224 -0.500836 -0.0125829
v 0.0156224 -0.500836 0.0125829
v 0.100109 -0.127722 -0.0125829
v 0.100109 -0.127722 0.0125829
v 0.100109 -0.136559 0.0125829
v 0.100109 -0.136559 -0.0125829
v -0.108124 -0.136843 0.0125829
v -0.108124 -0.136843 -0.0125829
v -0.108124 -0.146345 -0.0125829
v -0.108124 -0.146345 0.0125829
usemtl mat_0
f 1 2 9 4 3 14 13
usemtl mat_1
f 7 8 12 6 5 15 16
usemtl mat_2
f 9 10 12 11
usemtl mat_3
f 28 26 27 25
usemtl mat_4
f 1 5 6 2
usemtl mat_5
f 3 4 8 7
usemtl mat_6
f 2 6 10 9
usemtl mat_7
f 4 9 11
usemtl mat_8
f 6 12 10
usemtl mat_9
f 8 4 11 12
usemtl mat_10
f 5 1 13 15
usemtl mat_11
f 3 7 16 14
usemtl mat_12
f 33 34 35
usemtl mat_13
f 33 35 36
usemtl mat_14
f 16 15 17 21 25 27 23 19 35 34
usemtl mat_15
f 13 14 33 18 22 26 28 24 20 31
usemtl mat_16
f 29 30 31 32
usemtl mat_17
f 18 19 23 22
usemtl mat_18
f 17 20 24 21
usemtl mat_19
f 22 23 27 26
usemtl mat_20
f 21 24 28 25
usemtl mat_21
f 15 13 30 29
usemtl mat_22
f 13 31 30
usemtl mat_23
f 20 17 32 31
usemtl mat_24
f 17 15 29
usemtl mat_25
f 17 29 32
usemtl mat_26
f 14 16 34 33
usemtl mat_27
f 19 18 36 35
usemtl mat_28
f 18 33 36
