mtllib bow.mtl
o model
v 0 0.220528 0
v 0 -0.220528 0
v 0.0295348 0.220528 0
v 0.0295348 -0.220528 0
v 0.0208843 0.220528 0.0211733
v 0.0208843 -0.220528 0.0211733
v -1.29101e-09 0.220528 0.0299436
v -1.29101e-09 -0.220528 0.0299436
v -0.0208843 0.220528 0.0211733
v -0.0208843 -0.220528 0.0211733
v -0.0295348 0.220528 -2.61775e-09
v -0.0295348 -0.220528 -2.61775e-09
v -0.0208843 0.220528 -0.0211733
v -0.0208843 -0.220528 -0.0211733
v 3.522e-10 0.220528 -0.0299436
v 3.522e-10 -0.220528 -0.0299436
v 0.0208843 0.220528 -0.0211733
v 0.0208843 -0.220528 -0.0211733
v 0.125523 0.474134 1.23579e-10
v 0.148092 0.474134 1.23579e-10
v 0.141482 0.474134 0.0155644
v 0.125523 0.474134 0.0220113
v 0.109564 0.474134 0.0155644
v 0.102954 0.474134 -1.80071e-09
v 0.109564 0.474134 -0.0155644
v 0.125523 0.474134 -0.0220113
v 0.141482 0.474134 -0.0155643
v 0.323407 0.738767 1.30106e-10
v 0.34074 0.738767 1.30106e-10
v 0.335664 0.738767 0.0126773
v 0.323407 0.738767 0.0179284
v 0.311151 0.738767 0.0126773
v 0.306074 0.738767 -1.43724e-09
v 0.311151 0.738767 -0.0126773
v 0.323407 0.738767 -0.0179284
v 0.335664 0.738767 -0.0126773
v 0.144721 -0.518239 1.19646e-10
v 0.160073 -0.518239 0.0163835
v 0.166432 -0.518239 1.19646e-10
v 0.144721 -0.518239 0.0231698
v 0.129369 -0.518239 0.0163835
v 0.12301 -0.518239 -1.90592e-09
v 0.129369 -0.518239 -0.0163835
v 0.144721 -0.518239 -0.0231698
v 0.160073 -0.518239 -0.0163835
v 0.352942 -0.749793 1.30106e-10
v 0.363663 -0.749793 0.0126773
v 0.368104 -0.749793 1.30106e-10
v 0.352942 -0.749793 0.0179284
v 0.342221 -0.749793 0.0126773
v 0.337781 -0.749793 -1.43724e-09
v 0.342221 -0.749793 -0.0126773
v 0.352942 -0.749793 -0.0179284
v 0.363663 -0.749793 -0.0126773
v 0.3 0.696234 0
v 0.3 -0.696234 0
v 0.30346 0.696234 0
v 0.30346 -0.696234 0
v 0.302447 0.696234 0.00179846
v 0.302447 -0.696234 0.00179846
v 0.3 0.696234 0.00254341
v 0.3 -0.696234 0.00254341
v 0.297553 0.696234 0.00179846
v 0.297553 -0.696234 0.00179846
v 0.29654 0.696234 -2.22352e-10
v 0.29654 -0.696234 -2.22352e-10
v 0.297553 0.696234 -0.00179846
v 0.297553 -0.696234 -0.00179846
v 0.3 0.696234 -0.00254341
v 0.3 -0.696234 -0.00254341
v 0.302447 0.696234 -0.00179846
v 0.302447 -0.696234 -0.00179846
usemtl mat_0
f 28 29 30
usemtl mat_1
f 28 30 31
usemtl mat_2
f 28 31 32
usemtl mat_3
f 28 32 33
usemtl mat_4
f 28 33 34
usemtl mat_5
f 28 34 35
usemtl mat_6
f 28 35 36
usemtl mat_7
f 28 36 29
usemtl mat_8
f 46 47 48
usemtl mat_9
f 46 49 47
usemtl mat_10
f 46 50 49
usemtl mat_11
f 46 51 50
usemtl mat_12
f 46 52 51
usemtl mat_13
f 46 53 52
usemtl mat_14
f 46 54 53
usemtl mat_15
f 46 48 54
usemtl mat_16
f 3 4 5
usemtl mat_17
f 5 4 6
usemtl mat_18
f 5 6 7
usemtl mat_19
f 7 6 8
usemtl mat_20
f 7 8 9
usemtl mat_21
f 9 8 10
usemtl mat_22
f 9 10 11
usemtl mat_23
f 11 10 12
usemtl mat_24
f 11 12 13
usemtl mat_25
f 13 12 14
usemtl mat_26
f 13 14 15
usemtl mat_27
f 15 14 16
usemtl mat_28
f 15 16 17
usemtl mat_29
f 17 16 18
usemtl mat_30
f 17 18 3
usemtl mat_31
f 3 18 4
usemtl mat_32
f 3 5 21
usemtl mat_33
f 3 21 20
usemtl mat_34
f 5 7 22
usemtl mat_35
f 5 22 21
usemtl mat_36
f 7 9 23
usemtl mat_37
f 7 23 22
usemtl mat_38
f 9 11 24
usemtl mat_39
f 9 24 23
usemtl mat_40
f 11 13 25
usemtl mat_41
f 11 25 24
usemtl mat_42
f 13 15 26
usemtl mat_43
f 13 26 25
usemtl mat_44
f 15 17 27
usemtl mat_45
f 15 27 26
usemtl mat_46
f 17 3 20
usemtl mat_47
f 17 20 27
usemtl mat_48
f 20 21 30
usemtl mat_49
f 20 30 29
usemtl mat_50
f 21 22 31
usemtl mat_51
f 21 31 30
usemtl mat_52
f 22 23 32
usemtl mat_53
f 22 32 31
usemtl mat_54
f 23 24 33
usemtl mat_55
f 23 33 32
usemtl mat_56
f 24 25 34
usemtl mat_57
f 24 34 33
usemtl mat_58
f 25 26 35
usemtl mat_59
f 25 35 34
usemtl mat_60
f 26 27 36
usemtl mat_61
f 26 36 35
usemtl mat_62
f 27 20 29
usemtl mat_63
f 27 29 36
usemtl mat_64
f 6 4 39
usemtl mat_65
f 6 39 38
usemtl mat_66
f 8 6 38
usemtl mat_67
f 8 38 40
usemtl mat_68
f 10 8 40
usemtl mat_69
f 10 40 41
usemtl mat_70
f 12 10 41
usemtl mat_71
f 12 41 42
usemtl mat_72
f 14 12 42
usemtl mat_73
f 14 42 43
usemtl mat_74
f 16 14 43
usemtl mat_75
f 16 43 44
usemtl mat_76
f 18 16 44
usemtl mat_77
f 18 44 45
usemtl mat_78
f 4 18 45
usemtl mat_79
f 4 45 39
usemtl mat_80
f 38 39 48
usemtl mat_81
f 38 48 47
usemtl mat_82
f 40 38 47
usemtl mat_83
f 40 47 49
usemtl mat_84
f 41 40 49
usemtl mat_85
f 41 49 50
usemtl mat_86
f 42 41 50
usemtl mat_87
f 42 50 51
usemtl mat_88
f 43 42 51
usemtl mat_89
f 43 51 52
usemtl mat_90
f 44 43 52
usemtl mat_91
f 44 52 53
usemtl mat_92
f 45 44 53
usemtl mat_93
f 45 53 54
usemtl mat_94
f 39 45 54
usemtl mat_95
f 39 54 48
usemtl mat_96
f 55 57 59
usemtl mat_97
f 55 59 61
usemtl mat_98
f 55 61 63
usemtl mat_99
f 55 63 65
usemtl mat_100
f 55 65 67
usemtl mat_101
f 55 67 69
usemtl mat_102
f 55 69 71
usemtl mat_103
f 55 71 57
usemtl mat_104
f 56 60 58
usemtl mat_105
f 56 62 60
usemtl mat_106
f 56 64 62
usemtl mat_107
f 56 66 64
usemtl mat_108
f 56 68 66
usemtl mat_109
f 56 70 68
usemtl mat_110
f 56 72 70
usemtl mat_111
f 56 58 72
usemtl mat_112
f 57 58 59
usemtl mat_113
f 59 58 60
usemtl mat_114
f 59 60 61
usemtl mat_115
f 61 60 62
usemtl mat_116
f 61 62 63
usemtl mat_117
f 63 62 64
usemtl mat_118
f 63 64 65
usemtl mat_119
f 65 64 66
usemtl mat_120
f 65 66 67
usemtl mat_121
f 67 66 68
usemtl mat_122
f 67 68 69
usemtl mat_123
f 69 68 70
usemtl mat_124
f 69 70 71
usemtl mat_125
f 71 70 72
usemtl mat_126
f 71 72 57
usemtl mat_127
f 57 72 58
