mtllib shield.mtl
o model
v 0.0707241 -0.179621 0.0209632
v 0.0707241 0.179621 0.0209632
v -0.0707241 -0.179621 0.0209632
v -0.0707241 0.179621 0.0209632
v 0.0707241 -0.179621 -0.0209632
v 0.0707241 0.179621 -0.0209632
v -0.0707241 -0.179621 -0.0209632
v -0.0707241 0.179621 -0.0209632
v 0.169738 -0.179621 0.0419263
v 0.169738 -0.179621 6.24751e-09
v 0.169738 0.179621 0.0419263
v 0.169738 0.179621 6.24751e-09
v 0.243998 -0.179621 0.0775636
v 0.243998 -0.179621 0.0356374
v 0.243998 0.179621 0.0775636
v 0.243998 0.179621 0.0356374
v -0.141448 -0.179621 0.0524078
v -0.141448 0.179621 0.0524078
v -0.141448 -0.179621 0.0104816
v -0.141448 0.179621 0.0104816
v -0.208636 -0.179621 0.120538
v -0.208636 0.179621 0.120538
v -0.208636 -0.179621 0.0786118
v -0.208636 0.179621 0.0786118
v 0.151728 -0.386185 0.0419263
v 0.217584 -0.386185 0.0356374
v 0.217584 -0.386185 0.0775636
v 0.151728 -0.386185 4.998e-09
v 0.0639204 -0.386185 0.0209632
v 0.0639204 -0.386185 -0.0209632
v -0.0615192 -0.386185 0.0209632
v -0.0615192 -0.386185 -0.0209632
v -0.124239 -0.386185 0.0524078
v -0.124239 -0.386185 0.0104816
v -0.183823 -0.386185 0.120538
v -0.183823 -0.386185 0.0786118
v 0.0798595 -0.556825 0.0419263
v 0.112177 -0.556825 0.0356374
v 0.112177 -0.556825 0.0775636
v 0.0798595 -0.556825 4.998e-09
v 0.0367701 -0.556825 0.0209632
v 0.0367701 -0.556825 -0.0209632
v -0.0247864 -0.556825 0.0209632
v -0.0247864 -0.556825 -0.0209632
v -0.0555645 -0.556825 0.0524078
v -0.0555645 -0.556825 0.0104816
v -0.0848038 -0.556825 0.120538
v -0.0848038 -0.556825 0.0786118
usemtl mat_0
f 1 2 3
usemtl mat_1
f 3 2 4
usemtl mat_2
f 7 8 5
usemtl mat_3
f 5 8 6
usemtl mat_4
f 2 6 4
usemtl mat_5
f 4 6 8
usemtl mat_6
f 41 43 42
usemtl mat_7
f 42 43 44
usemtl mat_8
f 13 14 15
usemtl mat_9
f 15 14 16
usemtl mat_10
f 21 22 23
usemtl mat_11
f 23 22 24
usemtl mat_12
f 41 42 40
usemtl mat_13
f 41 40 37
usemtl mat_14
f 2 1 9
usemtl mat_15
f 2 9 11
usemtl mat_16
f 5 6 12
usemtl mat_17
f 5 12 10
usemtl mat_18
f 6 2 11
usemtl mat_19
f 6 11 12
usemtl mat_20
f 37 40 38
usemtl mat_21
f 37 38 39
usemtl mat_22
f 11 9 13
usemtl mat_23
f 11 13 15
usemtl mat_24
f 10 12 16
usemtl mat_25
f 10 16 14
usemtl mat_26
f 12 11 15
usemtl mat_27
f 12 15 16
usemtl mat_28
f 3 4 18
usemtl mat_29
f 3 18 17
usemtl mat_30
f 44 43 45
usemtl mat_31
f 44 45 46
usemtl mat_32
f 4 8 20
usemtl mat_33
f 4 20 18
usemtl mat_34
f 8 7 19
usemtl mat_35
f 8 19 20
usemtl mat_36
f 17 18 22
usemtl mat_37
f 17 22 21
usemtl mat_38
f 46 45 47
usemtl mat_39
f 46 47 48
usemtl mat_40
f 18 20 24
usemtl mat_41
f 18 24 22
usemtl mat_42
f 20 19 23
usemtl mat_43
f 20 23 24
usemtl mat_44
f 14 13 27
usemtl mat_45
f 14 27 26
usemtl mat_46
f 13 9 25
usemtl mat_47
f 13 25 27
usemtl mat_48
f 10 14 26
usemtl mat_49
f 10 26 28
usemtl mat_50
f 9 1 29
usemtl mat_51
f 9 29 25
usemtl mat_52
f 5 10 28
usemtl mat_53
f 5 28 30
usemtl mat_54
f 7 5 30
usemtl mat_55
f 7 30 32
usemtl mat_56
f 1 3 31
usemtl mat_57
f 1 31 29
usemtl mat_58
f 3 17 33
usemtl mat_59
f 3 33 31
usemtl mat_60
f 19 7 32
usemtl mat_61
f 19 32 34
usemtl mat_62
f 17 21 35
usemtl mat_63
f 17 35 33
usemtl mat_64
f 21 23 36
usemtl mat_65
f 21 36 35
usemtl mat_66
f 23 19 34
usemtl mat_67
f 23 34 36
usemtl mat_68
f 26 27 39
usemtl mat_69
f 26 39 38
usemtl mat_70
f 27 25 37
usemtl mat_71
f 27 37 39
usemtl mat_72
f 28 26 38
usemtl mat_73
f 28 38 40
usemtl mat_74
f 25 29 41
usemtl mat_75
f 25 41 37
usemtl mat_76
f 30 28 40
usemtl mat_77
f 30 40 42
usemtl mat_78
f 32 30 42
usemtl mat_79
f 32 42 44
usemtl mat_80
f 29 31 43
usemtl mat_81
f 29 43 41
usemtl mat_82
f 31 33 45
usemtl mat_83
f 31 45 43
usemtl mat_84
f 34 32 44
usemtl mat_85
f 34 44 46
usemtl mat_86
f 33 35 47
usemtl mat_87
f 33 47 45
usemtl mat_88
f 35 36 48
usemtl mat_89
f 35 48 47
usemtl mat_90
f 36 34 46
usemtl mat_91
f 36 46 48
