mtllib sword.mtl
o model
v 0.0476277 0.160925 0.0125829
v 0.0385994 0.539075 0.0125829
v -0.0476277 0.160925 0.0125829
v -0.0385994 0.539075 0.0125829
v 0.0476277 0.160925 -0.0125829
v 0.0385994 0.539075 -0.0125829
v -0.0476277 0.160925 -0.0125829
v -0.0385994 0.539075 -0.0125829
v 0.00747714 0.794326 0.0125829
v 0.00747714 0.794326 -0.0125829
v -0.00747714 0.794326 0.0125829
v -0.00747714 0.794326 -0.0125829
v 0.0600303 -0.0754181 0.0125829
v -0.0600303 -0.0754181 0.0125829
v 0.0600303 -0.0754181 -0.0125829
v -0.0600303 -0.0754181 -0.0125829
v 0.0600303 -0.113233 -0.0125829
v -0.0600303 -0.113233 0.0125829
v -0.0600303 -0.113233 -0.0125829
v 0.0600303 -0.113233 0.0125829
v 0.0156224 -0.13214 -0.0125829
v -0.0156224 -0.13214 0.0125829
v -0.0156224 -0.13214 -0.0125829
v 0.0156224 -0.13214 0.0125829
v 0.0156224 -0.500836 -0.0125829
v -0.0156224 -0.500836 0.0125829
v -0.0156224 -0.500836 -0.0125829
v 0.0156224 -0.500836 0.0125829
v 0.100109 -0.127722 -0.0125829
v 0.100109 -0.127722 0.0125829
v 0.100109 -0.136559 0.0125829
v 0.100109 -0.136559 -0.0125829
v -0.108124 -0.136843 0.0125829
v -0.108124 -0.136843 -0.0125829
v -0.108124 -0.146345 -0.0125829
v -0.108124 -0.146345 0.0125829
usemtl mat_0
f 1 2 3
usemtl mat_1
f 3 2 4
usemtl mat_2
f 7 8 5
usemtl mat_3
f 5 8 6
usemtl mat_4
f 9 10 11
usemtl mat_5
f 11 10 12
usemtl mat_6
f 28 26 25
usemtl mat_7
f 25 26 27
usemtl mat_8
f 1 5 2
usemtl mat_9
f 2 5 6
usemtl mat_10
f 3 4 7
usemtl mat_11
f 7 4 8
usemtl mat_12
f 2 6 10
usemtl mat_13
f 2 10 9
usemtl mat_14
f 4 2 9
usemtl mat_15
f 4 9 11
usemtl mat_16
f 6 8 12
usemtl mat_17
f 6 12 10
usemtl mat_18
f 8 4 11
usemtl mat_19
f 8 11 12
usemtl mat_20
f 1 3 14
usemtl mat_21
f 1 14 13
usemtl mat_22
f 5 1 13
usemtl mat_23
f 5 13 15
usemtl mat_24
f 3 7 16
usemtl mat_25
f 3 16 14
usemtl mat_26
f 7 5 15
usemtl mat_27
f 7 15 16
usemtl mat_28
f 33 34 35
usemtl mat_29
f 33 35 36
usemtl mat_30
f 16 15 17
usemtl mat_31
f 16 17 19
usemtl mat_32
f 13 14 18
usemtl mat_33
f 13 18 20
usemtl mat_34
f 29 30 31
usemtl mat_35
f 29 31 32
usemtl mat_36
f 18 19 23
usemtl mat_37
f 18 23 22
usemtl mat_38
f 19 17 21
usemtl mat_39
f 19 21 23
usemtl mat_40
f 20 18 22
usemtl mat_41
f 20 22 24
usemtl mat_42
f 17 20 24
usemtl mat_43
f 17 24 21
usemtl mat_44
f 22 23 27
usemtl mat_45
f 22 27 26
usemtl mat_46
f 23 21 25
usemtl mat_47
f 23 25 27
usemtl mat_48
f 24 22 26
usemtl mat_49
f 24 26 28
usemtl mat_50
f 21 24 28
usemtl mat_51
f 21 28 25
usemtl mat_52
f 15 13 30
usemtl mat_53
f 15 30 29
usemtl mat_54
f 13 20 31
usemtl mat_55
f 13 31 30
usemtl mat_56
f 20 17 32
usemtl mat_57
f 20 32 31
usemtl mat_58
f 17 15 29
usemtl mat_59
f 17 29 32
usemtl mat_60
f 14 16 34
usemtl mat_61
f 14 34 33
usemtl mat_62
f 16 19 35
usemtl mat_63
f 16 35 34
usemtl mat_64
f 19 18 36
usemtl mat_65
f 19 36 35
usemtl mat_66
f 18 14 33
usemtl mat_67
f 18 33 36
