mtllib shelf.mtl
o model
v 0.966225 -1.28578 0.3
v 0.966225 -0.31422 0.3
v -0.966225 -1.28578 0.3
v -0.966225 -0.31422 0.3
v 0.966225 -1.28578 -0.3
v 0.966225 -0.31422 -0.3
v -0.966225 -1.28578 -0.3
v -0.966225 -0.31422 -0.3
v 0.671497 -0.333869 0.3
v 0.671497 0.733869 0.3
v 0.628503 -0.333869 0.3
v 0.628503 0.733869 0.3
v 0.671497 -0.333869 -0.3
v 0.671497 0.733869 -0.3
v 0.628503 -0.333869 -0.3
v 0.628503 0.733869 -0.3
v 0.245429 -0.345507 0.3
v 0.245429 0.745507 0.3
v 0.204571 -0.345507 0.3
v 0.204571 0.745507 0.3
v 0.245429 -0.345507 -0.3
v 0.245429 0.745507 -0.3
v 0.204571 -0.345507 -0.3
v 0.204571 0.745507 -0.3
v -0.179723 -0.442616 0.3
v -0.179723 0.742616 0.3
v -0.220277 -0.442616 0.3
v -0.220277 0.742616 0.3
v -0.179723 -0.442616 -0.3
v -0.179723 0.742616 -0.3
v -0.220277 -0.442616 -0.3
v -0.220277 0.742616 -0.3
v -0.629034 -0.370087 0.3
v -0.629034 0.770087 0.3
v -0.670966 -0.370087 0.3
v -0.670966 0.770087 0.3
v -0.629034 -0.370087 -0.3
v -0.629034 0.770087 -0.3
v -0.670966 -0.370087 -0.3
v -0.670966 0.770087 -0.3
v 0.975329 0.720789 0.3
v 0.975329 0.779211 0.3
v -0.975329 0.720789 0.3
v -0.975329 0.779211 0.3
v 0.975329 0.720789 -0.3
v 0.975329 0.779211 -0.3
v -0.975329 0.720789 -0.3
v -0.975329 0.779211 -0.3
usemtl mat_0
f 1 2 4 3
usemtl mat_1
f 5 6 8 7
usemtl mat_2
f 2 6 8 4
usemtl mat_3
f 1 3 7 5
usemtl mat_4
f 1 2 6 5
usemtl mat_5
f 3 4 8 7
usemtl mat_6
f 9 10 12 11
usemtl mat_7
f 13 14 16 15
usemtl mat_8
f 10 14 16 12
usemtl mat_9
f 9 11 15 13
usemtl mat_10
f 9 10 14 13
usemtl mat_11
f 11 12 16 15
usemtl mat_12
f 17 18 20 19
usemtl mat_13
f 21 22 24 23
usemtl mat_14
f 18 22 24 20
usemtl mat_15
f 17 19 23 21
usemtl mat_16
f 17 18 22 21
usemtl mat_17
f 19 20 24 23
usemtl mat_18
f 25 26 28 27
usemtl mat_19
f 29 30 32 31
usemtl mat_20
f 26 30 32 28
usemtl mat_21
f 25 27 31 29
usemtl mat_22
f 25 26 30 29
usemtl mat_23
f 27 28 32 31
usemtl mat_24
f 33 34 36 35
usemtl mat_25
f 37 38 40 39
usemtl mat_26
f 34 38 40 36
usemtl mat_27
f 33 35 39 37
usemtl mat_28
f 33 34 38 37
usemtl mat_29
f 35 36 40 39
usemtl mat_30
f 41 42 44 43
usemtl mat_31
f 45 46 48 47
usemtl mat_32
f 42 46 48 44
usemtl mat_33
f 41 43 47 45
usemtl mat_34
f 41 42 46 45
usemtl mat_35
f 43 44 48 47
