mtllib staff.mtl
o model
v 0 -0.567962 0
v 0 -0.832038 0
v 0.0405828 -0.567962 0
v 0.0405828 -0.832038 0
v 0.0286963 -0.567962 0.0261258
v 0.0286963 -0.832038 0.0261258
v -1.77393e-09 -0.567962 0.0369474
v -1.77393e-09 -0.832038 0.0369474
v -0.0286963 -0.567962 0.0261258
v -0.0286963 -0.832038 0.0261258
v -0.0405828 -0.567962 -3.23005e-09
v -0.0405828 -0.832038 -3.23005e-09
v -0.0286963 -0.567962 -0.0261258
v -0.0286963 -0.832038 -0.0261258
v 4.83945e-10 -0.567962 -0.0369474
v 4.83945e-10 -0.832038 -0.0369474
v 0.0286964 -0.567962 -0.0261258
v 0.0286964 -0.832038 -0.0261258
v 0.0852238 -0.284081 7.01039e-09
v 0.113498 -0.284081 -0.0265044
v 0.125802 -0.284081 -0.00053946
v 0.114336 -0.284081 0.0257415
v 0.0858164 -0.284081 0.0369435
v 0.0569495 -0.284081 0.0265044
v 0.0446454 -0.284081 0.000539464
v 0.0561115 -0.284081 -0.0257415
v 0.0846312 -0.284081 -0.0369435
v 0.0852238 -0.000198543 1.6521e-09
v 0.114371 0.0324647 -0.0240294
v 0.125076 0.0232352 0.0023904
v 0.0865917 0.0225606 -0.0363731
v 0.0580114 -0.00067544 -0.02741
v 0.0453717 -0.0236322 -0.00239039
v 0.0560768 -0.0328617 0.0240294
v 0.0838558 -0.0229577 0.0363731
v 0.112436 0.000278413 0.0274099
v 0.0673387 0.224472 -0.000301636
v 0.0446496 0.257135 -0.0295399
v 0.0747475 0.247906 -0.0360314
v 0.0278427 0.247231 -0.00592103
v 0.034172 0.223995 0.0209896
v 0.05993 0.201038 0.0354281
v 0.0900278 0.191809 0.0289366
v 0.106835 0.201713 0.00531774
v 0.100505 0.224949 -0.0215929
v 0.194891 0.501958 0.0972318
v 0.2023 0.525392 0.0615021
v 0.228058 0.502435 0.0759405
v 0.234387 0.479199 0.102851
v 0.21758 0.469295 0.12647
v 0.187482 0.478525 0.132961
v 0.161724 0.501481 0.118523
v 0.155395 0.524717 0.0916124
v 0.172202 0.534621 0.0679935
v 0.342735 0.865269 0.0968546
v 0.327125 0.828849 0.0643078
v 0.358092 0.836335 0.0636266
v 0.305303 0.842697 0.0840542
v 0.305408 0.869768 0.111299
v 0.327378 0.894203 0.130082
v 0.358345 0.90169 0.129401
v 0.380167 0.887841 0.109655
v 0.380063 0.860771 0.08241
v 0.227613 0.381985 0.12858
v 0.0862735 0.257276 0.00934932
v 0.228154 0.346772 0.134385
v 0.104912 0.230601 0.015155
v 0.22764 0.351292 0.151767
v 0.0872283 0.234025 0.0325362
v 0.227111 0.373792 0.155565
v 0.0689854 0.251069 0.0363347
v 0.226875 0.401091 0.143556
v 0.0608696 0.271749 0.0243256
v 0.227071 0.417199 0.122774
v 0.0676351 0.28395 0.0035436
v 0.227585 0.412678 0.105393
v 0.0853187 0.280526 -0.0138375
v 0.228115 0.390179 0.101594
v 0.103562 0.263482 -0.0176361
v 0.22835 0.362879 0.113603
v 0.111677 0.242803 -0.00562699
v 0.341249 0.368366 0.187655
v 0.341987 0.356533 0.166581
v 0.341791 0.346558 0.195824
v 0.341751 0.37344 0.149683
v 0.341222 0.387374 0.155028
v 0.340708 0.390173 0.179485
v 0.340512 0.380198 0.208728
v 0.340747 0.363292 0.225626
v 0.341277 0.349357 0.220281
usemtl mat_0
f 55 57 63
usemtl mat_1
f 55 63 62
usemtl mat_2
f 55 62 61
usemtl mat_3
f 55 61 60
usemtl mat_4
f 55 60 59
usemtl mat_5
f 55 59 58
usemtl mat_6
f 55 58 56
usemtl mat_7
f 55 56 57
usemtl mat_8
f 2 6 4
usemtl mat_9
f 2 8 6
usemtl mat_10
f 2 10 8
usemtl mat_11
f 2 12 10
usemtl mat_12
f 2 14 12
usemtl mat_13
f 2 16 14
usemtl mat_14
f 2 18 16
usemtl mat_15
f 2 4 18
usemtl mat_16
f 3 4 5
usemtl mat_17
f 5 4 6
usemtl mat_18
f 5 6 7
usemtl mat_19
f 7 6 8
usemtl mat_20
f 7 8 9
usemtl mat_21
f 9 8 10
usemtl mat_22
f 9 10 11
usemtl mat_23
f 11 10 12
usemtl mat_24
f 11 12 13
usemtl mat_25
f 13 12 14
usemtl mat_26
f 13 14 15
usemtl mat_27
f 15 14 16
usemtl mat_28
f 15 16 17
usemtl mat_29
f 17 16 18
usemtl mat_30
f 17 18 3
usemtl mat_31
f 3 18 4
usemtl mat_32
f 3 5 21
usemtl mat_33
f 3 21 20
usemtl mat_34
f 5 7 22
usemtl mat_35
f 5 22 21
usemtl mat_36
f 7 9 23
usemtl mat_37
f 7 23 22
usemtl mat_38
f 9 11 24
usemtl mat_39
f 9 24 23
usemtl mat_40
f 11 13 25
usemtl mat_41
f 11 25 24
usemtl mat_42
f 13 15 26
usemtl mat_43
f 13 26 25
usemtl mat_44
f 15 17 27
usemtl mat_45
f 15 27 26
usemtl mat_46
f 17 3 20
usemtl mat_47
f 17 20 27
usemtl mat_48
f 27 20 30
usemtl mat_49
f 27 30 29
usemtl mat_50
f 26 27 29
usemtl mat_51
f 26 29 31
usemtl mat_52
f 25 26 31
usemtl mat_53
f 25 31 32
usemtl mat_54
f 24 25 32
usemtl mat_55
f 24 32 33
usemtl mat_56
f 23 24 33
usemtl mat_57
f 23 33 34
usemtl mat_58
f 22 23 34
usemtl mat_59
f 22 34 35
usemtl mat_60
f 21 22 35
usemtl mat_61
f 21 35 36
usemtl mat_62
f 20 21 36
usemtl mat_63
f 20 36 30
usemtl mat_64
f 29 30 39
usemtl mat_65
f 29 39 38
usemtl mat_66
f 31 29 38
usemtl mat_67
f 31 38 40
usemtl mat_68
f 32 31 40
usemtl mat_69
f 32 40 41
usemtl mat_70
f 33 32 41
usemtl mat_71
f 33 41 42
usemtl mat_72
f 34 33 42
usemtl mat_73
f 34 42 43
usemtl mat_74
f 35 34 43
usemtl mat_75
f 35 43 44
usemtl mat_76
f 36 35 44
usemtl mat_77
f 36 44 45
usemtl mat_78
f 30 36 45
usemtl mat_79
f 30 45 39
usemtl mat_80
f 39 45 48
usemtl mat_81
f 39 48 47
usemtl mat_82
f 45 44 49
usemtl mat_83
f 45 49 48
usemtl mat_84
f 44 43 50
usemtl mat_85
f 44 50 49
usemtl mat_86
f 43 42 51
usemtl mat_87
f 43 51 50
usemtl mat_88
f 42 41 52
usemtl mat_89
f 42 52 51
usemtl mat_90
f 41 40 53
usemtl mat_91
f 41 53 52
usemtl mat_92
f 40 38 54
usemtl mat_93
f 40 54 53
usemtl mat_94
f 38 39 47
usemtl mat_95
f 38 47 54
usemtl mat_96
f 54 47 57
usemtl mat_97
f 54 57 56
usemtl mat_98
f 53 54 56
usemtl mat_99
f 53 56 58
usemtl mat_100
f 52 53 58
usemtl mat_101
f 52 58 59
usemtl mat_102
f 51 52 59
usemtl mat_103
f 51 59 60
usemtl mat_104
f 50 51 60
usemtl mat_105
f 50 60 61
usemtl mat_106
f 49 50 61
usemtl mat_107
f 49 61 62
usemtl mat_108
f 48 49 62
usemtl mat_109
f 48 62 63
usemtl mat_110
f 47 48 63
usemtl mat_111
f 47 63 57
usemtl mat_112
f 82 84 90
usemtl mat_113
f 82 90 89
usemtl mat_114
f 82 89 88
usemtl mat_115
f 82 88 87
usemtl mat_116
f 82 87 86
usemtl mat_117
f 82 86 85
usemtl mat_118
f 82 85 83
usemtl mat_119
f 82 83 84
usemtl mat_120
f 65 69 67
usemtl mat_121
f 65 71 69
usemtl mat_122
f 65 73 71
usemtl mat_123
f 65 75 73
usemtl mat_124
f 65 77 75
usemtl mat_125
f 65 79 77
usemtl mat_126
f 65 81 79
usemtl mat_127
f 65 67 81
usemtl mat_128
f 66 67 68
usemtl mat_129
f 68 67 69
usemtl mat_130
f 68 69 70
usemtl mat_131
f 70 69 71
usemtl mat_132
f 70 71 72
usemtl mat_133
f 72 71 73
usemtl mat_134
f 72 73 74
usemtl mat_135
f 74 73 75
usemtl mat_136
f 74 75 76
usemtl mat_137
f 76 75 77
usemtl mat_138
f 76 77 78
usemtl mat_139
f 78 77 79
usemtl mat_140
f 78 79 80
usemtl mat_141
f 80 79 81
usemtl mat_142
f 80 81 66
usemtl mat_143
f 66 81 67
usemtl mat_144
f 80 66 84
usemtl mat_145
f 80 84 83
usemtl mat_146
f 78 80 83
usemtl mat_147
f 78 83 85
usemtl mat_148
f 76 78 85
usemtl mat_149
f 76 85 86
usemtl mat_150
f 74 76 86
usemtl mat_151
f 74 86 87
usemtl mat_152
f 72 74 87
usemtl mat_153
f 72 87 88
usemtl mat_154
f 70 72 88
usemtl mat_155
f 70 88 89
usemtl mat_156
f 68 70 89
usemtl mat_157
f 68 89 90
usemtl mat_158
f 66 68 90
usemtl mat_159
f 66 90 84
